<svg id="Layer_1" data-name="Layer 1" xmlns="http://www.w3.org/2000/svg" viewBox="0 0 901.06 901.07"><defs><style>.cls-1{fill:#040707;}.cls-2{fill:#fefefe;}.cls-3{fill:#f28364;}.cls-4{fill:#f28363;}.cls-5{fill:#7fd2f5;}.cls-6{fill:#7ccff1;}.cls-7{fill:#f6f6f6;}.cls-8{fill:#f08465;}.cls-9{fill:#ef8263;}.cls-10{fill:#f5f6f6;}.cls-11{fill:#f4f4f4;}.cls-12{fill:#fafafa;}.cls-13{fill:#070a0a;}</style></defs><title>logo2</title><path class="cls-1" d="M501.21,50.47C750.53,50.51,954,253.6,951.52,505.83,949.05,752.59,747.31,954.05,496,951.51,249.34,949,47.86,747.25,50.5,495.92,53.09,249.83,253.28,50.44,501.21,50.47Zm-101.86,542,.07-.08c14.64-7.21,21.35-19.3,21.75-35.28.33-13.47-.73-27,.67-40.42,3.58,6.16,7.28,12.27,10.74,18.51,10.15,18.32,20,36.81,30.36,55,12.5,21.95,34.33,29,57.25,18.7,5.51-2.47,10.58-5.63,13-11.62l.08,0c.65,0,1.18-.08,1.12-.92l3.49-3.3a8.92,8.92,0,0,0,1.88-.57c14.48-8.1,20-21.21,20.15-37,.14-12-.38-24-.39-36q-.06-104,0-207.92c0-3.16.14-6.27-.71-9.38-4.93-18-18.27-30.15-36.86-31.65-14.9-1.2-28.54,2.23-37.08,16.33l-4,3.06c-14.21,6.75-20.62,18.75-21.4,33.73-.73,14.05-.36,28.17-.48,42.25-1.29-.66-1.62-2-2.26-3.17-8-14.17-15.86-28.41-24-42.51C426.38,309,421.25,297,413.58,286.51,396.63,263.38,363.05,262.7,347,285L343,288.8c-4,.69-6.85,3.25-9.54,6-9.71,9.82-13.53,21.52-12.45,35.36a230.14,230.14,0,0,1-.13,38.76c-.69-1.13-1.4-2.24-2.05-3.4Q299,330.36,279.15,295.22c-6.45-11.52-14.68-20.91-27.92-24.73-16.59-4.78-36.53,1.83-44.18,14.69L203,288.74c-3,.4-5.15,2.28-7.33,4.06-15.21,12.39-19.83,34.77-10.2,51.94q61.88,110.34,124.08,220.52c6,10.57,10.9,21.77,18.28,31.49,16.64,21.93,50.92,22,66.24.34l4.15-4ZM774.92,596c.61.07.91-.23,1-.81l3.2-3.22c13.62-5.36,23.67-22.73,22.31-38.52-2.1-24.34-19.63-40.41-44.18-40.4-25,0-50,.11-75,.15-6.51,0-7.25-.71-7.24-7.11,0-18.33.16-36.66.15-55,0-46.83-.31-93.65,0-140.48.09-13.52-5.31-23.74-15.26-32.08-17.85-15-47.44-11.21-59.07,7.4l-4.9,3.68c-13.73,7.09-20.61,18.47-20.71,33.81q-.26,39.72-.18,79.46,0,84.47.15,168.93c0,21.7,18.39,40.05,40.15,40.06h112c5.5,0,11,.35,16.48-.05,12.57-.91,23.67-5,31.22-15.88ZM609.53,664.63c.72,1.92,1.17,3,1.52,4.07,3,9.33,5.87,18.69,8.93,28,1,3,1.18,7,5.69,7.12,4.84.15,5.12-4.06,6.24-7.18,3-8.43,5.9-16.92,8.81-25.4q2.41-7.07,4.77-14.15c.92-2.77,1.06-5.54-2.24-6.65s-5.32.84-6.31,3.94l-1.05,3.31-10.06,31.95c-.54-1.3-.73-1.68-.87-2.09q-5.31-16.6-10.6-33.21c-.77-2.42-2-4.2-4.85-4.19-2.64,0-3.72,1.84-4.5,4-.39,1.09-.71,2.21-1.06,3.31l-10.38,32.4c-.76-2.25-1.15-3.33-1.49-4.43q-4.53-14.49-9-29c-.25-.79-.52-1.57-.78-2.36-1-2.94-2.94-4.64-6-3.65s-3.43,3.54-2.41,6.49q7.08,20.46,14,41c1,2.86,1.66,6,5.61,6s4.63-3.17,5.54-6C602.43,687.09,605.83,676.33,609.53,664.63ZM686.61,657c-5-5.5-10.3-7.45-16.44-6.81-11.33,1.17-19.42,10.39-20.63,23.32-1.3,14.05,5.46,26.32,16.23,29.42.16,0,.33,0,.49.09,7.92,2.29,14.64.06,20.54-6.29-.12,4,.16,7.22,4.43,7,4-.19,3.81-3.36,3.8-6.29,0-13.64,0-27.28,0-40.93,0-3,0-6-3.82-6.31S686.76,652.87,686.61,657ZM667.09,758.85c5,0,10,0,15,0,2.54,0,4.7-.68,4.94-3.72.91-11.76-7.39-28.5-25.19-26.45-9.78,1.13-16.13,6.85-19.06,16-3.61,11.25-2.93,22.28,5.64,31.18,7.25,7.53,16.58,7.58,26,4.73a21,21,0,0,0,10.47-6.43c1.39-1.69,1.82-3.66.28-5.46s-3.51-1.28-5.3,0a48.71,48.71,0,0,1-5.36,3.6c-10.4,5.38-22.21.64-24.31-9.61-.52-2.53-.38-4,3-3.85C657.76,759.06,662.43,758.86,667.09,758.85Zm75,23.31A23.16,23.16,0,0,0,752.73,780c5.57-2.72,8.56-7.11,8.82-13.39.26-6.07-3.25-9.52-8.12-12-2.65-1.35-5.45-2.42-8.18-3.64s-5.48-2.36-8.13-3.74c-2-1-3.43-2.61-3.24-5.15.2-2.73,2-4.15,4.25-5,4.94-1.87,9.49-.79,13.6,2.34,2.57,2,5.59,3.67,7.76.4s-.52-6-3.33-7.67a25.58,25.58,0,0,0-17.77-3.23c-7,1.21-12.34,5.85-13.36,11.72-1.09,6.33,1.48,10.6,9,14.36,4.59,2.3,9.4,4.17,14,6.48,2.72,1.38,5.24,3.42,4.47,7s-3.6,5-6.9,5.63c-5.64,1.13-10.41-.87-14.9-4.07-2.17-1.54-4.77-3.54-7-.61s-.57,5.66,2,7.7C730.5,780.85,736.15,782,742.07,782.16Zm-151.11,0c10.13.09,17.59-4.8,19.15-12.55,1.66-8.25-1.63-12.79-12.62-17.38-3.52-1.48-7.11-2.8-10.54-4.46-2.45-1.18-4.63-2.9-4.05-6.15.55-3,2.85-4.26,5.57-5,4.76-1.27,8.84.17,12.58,3,2.45,1.88,5.34,3.14,7.41.19s0-5.43-2.52-7.11A25,25,0,0,0,586.89,729c-7,1.26-12.18,6.15-13,12.09-.81,6.18,1.76,10.29,9,13.88,4.61,2.29,9.42,4.17,14,6.5,2.71,1.38,5.24,3.4,4.45,7s-3.53,5-6.86,5.64c-5.66,1.1-10.43-.87-14.9-4.08-2.2-1.58-4.75-3.5-7-.61s-.6,5.66,2,7.68C579.4,780.82,585,782,591,782.18ZM543.28,668.46,507.89,686c-2.57,1.27-5.63,2.51-4,6.18,1.72,3.86,4.72,2.06,7.2.83,13.23-6.53,26.41-13.17,39.61-19.76,2.15-1.07,4.18-2.26,4.24-5s-2-4-4.12-5.11q-20-10-40.09-19.94c-2.36-1.16-5.18-2.72-6.82.81s1.14,5,3.78,6.33c8.78,4.3,17.6,8.53,26.32,12.95C537.06,664.84,540.41,665.93,543.28,668.46ZM737.85,680c0-5.33.19-10.66-.06-16-.16-3.56,0-6.12,4.7-5.73,2.08.18,3.3-1.55,3.29-3.62s-1.13-3.88-3.23-3.66c-5.26.57-4.86-2.74-4.71-6.12.08-1.83.06-3.66,0-5.49-.08-2.73-1.36-4.38-4.26-4.42-3.11,0-4.54,1.62-4.58,4.62,0,2.33-.17,4.67,0,7,.24,2.95-.25,4.77-3.88,4.31-2.3-.29-3.8,1.07-4,3.47-.19,2.72,1.45,4.28,3.89,4,4.08-.39,4,1.84,4,4.78-.11,11.48,0,22.95-.07,34.43,0,3.33.46,6.21,4.56,6.19,4.26,0,4.37-3.18,4.35-6.35C737.82,691.64,737.85,685.82,737.85,680Zm-116.7,78c0,5.82,0,11.64,0,17.47,0,3.39.27,6.68,4.74,6.6,4.2-.08,4.32-3.31,4.31-6.46,0-11.48,0-23,0-34.44,0-2.77,0-4.88,3.82-4.43a3.46,3.46,0,0,0,4-3.48c.17-2.14-1-4.16-2.86-4-6.2.66-5-3.46-4.95-6.93,0-1.33,0-2.66,0-4,0-3.08-1.17-5.29-4.59-5.19s-4.41,2.45-4.43,5.44c0,2.33-.13,4.67,0,7s-.36,3.64-3.18,3.43c-2.62-.2-4.55,1-4.5,4,0,2.8,1.91,3.88,4.29,3.68,3.09-.27,3.48,1.17,3.41,3.76C621,746.36,621.15,752.18,621.15,758ZM535,744c0,10.65,0,21.3,0,32,0,3.32.36,6.24,4.55,6.14,3.8-.1,4.37-2.85,4.36-6q0-32.22,0-64.42c0-3.36-.65-6.2-4.69-6.14-3.85,0-4.25,2.82-4.23,6C535,722.37,535,733.19,535,744Zm169.23-7.65c-.28-3.94,0-7.93-4.76-7.76-5.18.18-4.45,4.39-4.46,7.82,0,13.29,0,26.59,0,39.88,0,3.19.83,5.8,4.55,5.8s4.52-2.63,4.49-5.82c0-7.15,0-14.29,0-21.44,0-10.77,2.14-13.7,12.57-17.22,2.78-.93,5-2.5,4-5.78-.9-3.11-3.5-3.68-6.43-3.12C709.93,729.51,707.41,732.63,704.22,736.36ZM715,677c0-7.16-.07-14.32,0-21.48,0-3.18-1.13-5.31-4.44-5.31s-4.48,2.24-4.48,5.36q0,21.46,0,42.95c0,3.07,1.09,5.3,4.52,5.29s4.42-2.21,4.38-5.33C715,691.33,715,684.17,715,677ZM555,755.5c0,7,.07,14,0,21-.05,3.29.81,5.72,4.57,5.64,3.47-.08,4.34-2.5,4.34-5.48q0-21.23,0-42.44c0-3.23-1-5.74-4.69-5.65-3.42.09-4.26,2.41-4.22,5.5C555.06,741.19,555,748.35,555,755.5ZM716.08,637.59a5,5,0,0,0-5.17-5c-3.28-.12-5.51,1.7-5.68,5-.18,3.48,1.8,5.73,5.4,5.75C713.9,643.33,715.85,641.52,716.08,637.59ZM553.94,716.18c.18,3.62,2.29,5.55,5.4,5.52,3.36,0,5.69-2.14,5.44-5.77-.22-3.26-2.28-5.16-5.64-5S554.12,713,553.94,716.18Z" transform="translate(-50.48 -50.47)"/><path class="cls-2" d="M398.22,593.13l-4.15,4c-2.15.21-4.31.35-6.45.63-7.09.93-14.05,1.67-21.24-.31-13.47-3.7-21.52-12.92-28-24.56Q290.84,487.84,243,403c-13.14-23.36-26.25-46.73-39.57-70-7.74-13.52-8.1-27.11-1.52-41.06a29.76,29.76,0,0,0,1.11-3.26l4.05-3.56c2.13-.3,4.28-.5,6.4-.91a43.55,43.55,0,0,1,29,4,38.77,38.77,0,0,1,17.13,16.88c13.88,26.94,29.81,52.73,44.41,79.26,4.58,8.31,9.35,16.51,14.15,24.68.91,1.55,2,4.24,4.48,2.05,4.93-4.38,10.83-7.74,14.51-13.46,1.22-1.64.7-3.53.7-5.31q.06-23.66,0-47.31c0-9.13.68-18.34-.3-27.37a48.31,48.31,0,0,1,3.29-22.81c.75-2,1.4-4,2.1-6.06L347,285a21.66,21.66,0,0,0,6.41-.54c18.78-4,36.6,3.8,45.82,20.16,14.45,25.61,28.72,51.33,43.08,77,4.71,8.4,9.41,16.81,14.25,25.14,1.4,2.41,3,4.37,6.05,1.24a97.32,97.32,0,0,1,11.3-9.76c2-1.5,1.82-2.84,1.08-4.64,1-1.84.84-3.87.85-5.86.1-22.49.3-45,.23-67.48,0-10.41.76-20.59,4.88-30.29l4-3.06c3.44-.5,6.89-.95,10.32-1.52,21-3.52,41.88,10.3,46.38,30.94,2,9,1.36,18.22,1.29,27.36-.41,51.6.75,103.2-.61,154.8-.51,19.47-.85,39,.19,58.44.67,12.54.23,24.49-4.57,36.13l-3.48,3.3c-.9-.33-1.11.18-1.13.92l-.08,0c-1.68-.52-3.25.06-4.89.39C507.07,602,490.42,594.12,480,575.2q-14.35-25.94-29-51.71c-9.29-16.29-17.83-33-28.11-48.74-1.06-1.1-1.75-.07-2.53.43-4.05,2.61-8,5.42-12.18,7.76-3.14,1.75-4.23,3.93-4.2,7.55.16,26.6.07,53.2.09,79.79a44.73,44.73,0,0,1-3.78,18.38c-.51,1.16-1.52,2.27-.81,3.72l-.07.08C398.69,592.2,398.35,592.49,398.22,593.13Z" transform="translate(-50.48 -50.47)"/><path class="cls-2" d="M595.9,289.58l4.9-3.68a54.08,54.08,0,0,0,5.42-.57c9-1.82,17.86-2,26.48,1.55,16.27,6.73,25.38,20.43,25.38,38.23q0,97.25-.07,194.49c0,7.36,1,8.31,8.35,8.31,26.5,0,53-.16,79.49.09,19.52.18,37.2,17.91,38.38,37.25.57,9.46-2,18.07-5.12,26.68l-3.2,3.22c-.58,0-1.1,0-1,.81l0-.05c-4.78.41-9.57,1.16-14.35,1.17-43.14.09-86.27.2-129.4,0C609.23,597,592,579,592,556.86q0-110.19,0-220.36C592,320.76,590.56,304.89,595.9,289.58Z" transform="translate(-50.48 -50.47)"/><path class="cls-3" d="M203,288.74a29.76,29.76,0,0,1-1.11,3.26c-6.58,13.95-6.22,27.54,1.52,41.06,13.32,23.25,26.43,46.62,39.57,70q47.75,84.87,95.38,169.81c6.5,11.64,14.55,20.86,28,24.56,7.19,2,14.15,1.24,21.24.31,2.14-.28,4.3-.42,6.45-.63-15.32,21.7-49.6,21.59-66.24-.34-7.38-9.72-12.32-20.92-18.28-31.49Q247.39,455.07,185.47,344.74c-9.63-17.17-5-39.55,10.2-51.94C197.85,291,200,289.14,203,288.74Z" transform="translate(-50.48 -50.47)"/><path class="cls-4" d="M595.9,289.58c-5.34,15.31-3.89,31.18-3.9,46.92q0,110.17,0,220.36c0,22.14,17.23,40.1,39.21,40.21,43.13.21,86.26.1,129.4,0,4.78,0,9.57-.76,14.35-1.17-7.55,10.89-18.65,15-31.22,15.88-5.46.4-11,.05-16.48.05h-112c-21.76,0-40.13-18.36-40.15-40.06q-.09-84.46-.15-168.93,0-39.74.18-79.46C575.29,308.05,582.17,296.67,595.9,289.58Z" transform="translate(-50.48 -50.47)"/><path class="cls-5" d="M779.11,591.93c3.14-8.61,5.69-17.22,5.12-26.68-1.18-19.34-18.86-37.07-38.38-37.25-26.49-.25-53-.08-79.49-.09-7.39,0-8.36-.95-8.35-8.31q0-97.25.07-194.49c0-17.8-9.11-31.5-25.38-38.23-8.62-3.57-17.51-3.37-26.48-1.55a54.08,54.08,0,0,1-5.42.57c11.63-18.61,41.22-22.36,59.07-7.4,10,8.34,15.35,18.56,15.26,32.08-.28,46.83,0,93.65,0,140.48,0,18.33-.12,36.66-.15,55,0,6.4.73,7.11,7.24,7.11,25,0,50-.14,75-.15,24.55,0,42.08,16.06,44.18,40.4C802.78,569.2,792.73,586.57,779.11,591.93Z" transform="translate(-50.48 -50.47)"/><path class="cls-6" d="M537.92,593c4.8-11.64,5.24-23.59,4.57-36.13-1-19.43-.7-39-.19-58.44,1.36-51.6.2-103.2.61-154.8.07-9.14.67-18.36-1.29-27.36-4.5-20.64-25.43-34.46-46.38-30.94-3.43.57-6.88,1-10.32,1.52,8.54-14.1,22.18-17.53,37.08-16.33,18.59,1.5,31.93,13.63,36.86,31.65.85,3.11.71,6.22.71,9.38q0,104,0,207.92c0,12,.53,24,.39,36-.19,15.79-5.67,28.9-20.15,37A8.92,8.92,0,0,1,537.92,593Z" transform="translate(-50.48 -50.47)"/><path class="cls-5" d="M337.14,397.66c-3.68,5.72-9.58,9.08-14.51,13.46-2.45,2.19-3.57-.5-4.48-2.05-4.8-8.17-9.57-16.37-14.15-24.68-14.6-26.53-30.53-52.32-44.41-79.26a38.77,38.77,0,0,0-17.13-16.88,43.55,43.55,0,0,0-29-4c-2.12.41-4.27.61-6.4.91,7.65-12.86,27.59-19.47,44.18-14.69,13.24,3.82,21.47,13.21,27.92,24.73q19.73,35.19,39.63,70.27c.65,1.16,1.36,2.27,2,3.4Z" transform="translate(-50.48 -50.47)"/><path class="cls-5" d="M475,393.55c.74,1.8.91,3.14-1.08,4.64a97.32,97.32,0,0,0-11.3,9.76c-3.07,3.13-4.65,1.17-6.05-1.24-4.84-8.33-9.54-16.74-14.25-25.14-14.36-25.66-28.63-51.38-43.08-77-9.22-16.36-27-24.12-45.82-20.16A21.66,21.66,0,0,1,347,285c16-22.26,49.62-21.58,66.57,1.55,7.67,10.47,12.8,22.49,19.26,33.71,8.12,14.1,16,28.34,24,42.51.64,1.13,1,2.51,2.26,3.17C464.25,375.2,469.1,384.68,475,393.55Z" transform="translate(-50.48 -50.47)"/><path class="cls-3" d="M422.83,474.75c10.28,15.72,18.82,32.45,28.11,48.74q14.69,25.75,29,51.71c10.47,18.92,27.12,26.76,48.39,22.47,1.64-.33,3.21-.91,4.89-.39-2.46,6-7.53,9.15-13,11.62-22.92,10.26-44.75,3.25-57.25-18.7-10.37-18.2-20.21-36.69-30.36-55-3.46-6.24-7.16-12.35-10.74-18.51,0-4-.14-7.93.06-11.87C422.4,494.79,421.27,484.73,422.83,474.75Z" transform="translate(-50.48 -50.47)"/><path class="cls-5" d="M422.83,474.75c-1.56,10-.43,20-.93,30.06-.2,3.94,0,7.91-.06,11.87-1.4,13.45-.34,27-.67,40.42-.4,16-7.11,28.07-21.75,35.28-.71-1.45.3-2.56.81-3.72A44.73,44.73,0,0,0,404,570.28c0-26.59.07-53.19-.09-79.79,0-3.62,1.06-5.8,4.2-7.55,4.19-2.34,8.13-5.15,12.18-7.76C421.08,474.68,421.77,473.65,422.83,474.75Z" transform="translate(-50.48 -50.47)"/><path class="cls-7" d="M609.53,664.63c-3.7,11.7-7.1,22.46-10.54,33.2-.91,2.84-1.56,6-5.54,6s-4.63-3.11-5.61-6q-7-20.5-14-41c-1-2.95-.81-5.46,2.41-6.49s5.06.71,6,3.65c.26.79.53,1.57.78,2.36q4.51,14.51,9,29c.34,1.1.73,2.18,1.49,4.43L604,657.43c.35-1.1.67-2.22,1.06-3.31.78-2.13,1.86-4,4.5-4,2.83,0,4.08,1.77,4.85,4.19Q619.64,671,625,687.55c.14.41.33.79.87,2.09l10.06-31.95,1.05-3.31c1-3.1,2.94-5.08,6.31-3.94s3.16,3.88,2.24,6.65q-2.36,7.08-4.77,14.15c-2.91,8.48-5.78,17-8.81,25.4-1.12,3.12-1.4,7.33-6.24,7.18-4.51-.14-4.7-4.12-5.69-7.12-3.06-9.31-6-18.67-8.93-28C610.7,667.61,610.25,666.55,609.53,664.63Z" transform="translate(-50.48 -50.47)"/><path class="cls-8" d="M337.14,397.66l-16.32-28.77a229.09,229.09,0,0,0,.14-38.76c-1.08-13.84,2.74-25.54,12.45-35.36,2.69-2.72,5.55-5.28,9.54-6-.7,2-1.35,4.06-2.1,6.06a48.31,48.31,0,0,0-3.29,22.81c1,9,.29,18.24.3,27.37q0,23.65,0,47.31C337.84,394.13,338.36,396,337.14,397.66Z" transform="translate(-50.48 -50.47)"/><path class="cls-9" d="M475,393.55c-5.9-8.87-10.75-18.35-15.92-27.65.12-14.08-.25-28.2.48-42.25.78-15,7.19-27,21.4-33.73-4.12,9.7-4.92,19.88-4.88,30.29.07,22.5-.13,45-.23,67.48C475.84,389.68,476,391.71,475,393.55Z" transform="translate(-50.48 -50.47)"/><path class="cls-7" d="M686.61,657c.15-4.17.86-7.06,4.61-6.8s3.83,3.32,3.82,6.31c-.06,13.65,0,27.29,0,40.93,0,2.93.18,6.1-3.8,6.29-4.27.22-4.55-3-4.43-7-5.9,6.35-12.62,8.58-20.54,6.29-.16,0-.33,0-.49-.09-10.77-3.1-17.53-15.37-16.23-29.42,1.21-12.93,9.3-22.15,20.63-23.32C676.31,649.59,681.62,651.54,686.61,657ZM673,658c-5.68,0-9.56,2.43-11.79,6.87a25.81,25.81,0,0,0,0,24.41,12,12,0,0,0,11.3,6.87A12.14,12.14,0,0,0,684,688.8a26.07,26.07,0,0,0,0-23.54C681.72,660.57,677.85,658,673,658Z" transform="translate(-50.48 -50.47)"/><path class="cls-10" d="M667.09,758.85c-4.66,0-9.33.21-14-.06-3.33-.2-3.47,1.32-3,3.85,2.1,10.25,13.91,15,24.31,9.61a48.71,48.71,0,0,0,5.36-3.6c1.79-1.26,3.65-1.92,5.3,0s1.11,3.77-.28,5.46a21,21,0,0,1-10.47,6.43c-9.42,2.85-18.75,2.8-26-4.73-8.57-8.9-9.25-19.93-5.64-31.18,2.93-9.12,9.28-14.84,19.06-16,17.8-2,26.1,14.69,25.19,26.45-.24,3-2.4,3.7-4.94,3.72C677.07,758.87,672.08,758.85,667.09,758.85Zm-3.2-6.86c3.66,0,7.33-.15,11,0,2.58.14,3.52-.5,3.08-3.27-1.23-7.59-7-12.78-14.35-12.59-7.16.19-12.53,5.38-13.55,12.85-.35,2.5.44,3.14,2.86,3C656.56,751.84,660.23,752,663.89,752Z" transform="translate(-50.48 -50.47)"/><path class="cls-10" d="M742.07,782.16c-5.92-.17-11.57-1.31-16.36-5.08-2.59-2-4.28-4.73-2-7.7s4.83-.93,7,.61c4.49,3.2,9.26,5.2,14.9,4.07,3.3-.66,6.14-2.13,6.9-5.63s-1.75-5.58-4.47-7c-4.59-2.31-9.4-4.18-14-6.48-7.52-3.76-10.09-8-9-14.36,1-5.87,6.36-10.51,13.36-11.72a25.58,25.58,0,0,1,17.77,3.23c2.81,1.66,5.61,4.25,3.33,7.67s-5.19,1.55-7.76-.4c-4.11-3.13-8.66-4.21-13.6-2.34-2.26.86-4,2.28-4.25,5-.19,2.54,1.25,4.11,3.24,5.15,2.65,1.38,5.41,2.52,8.13,3.74s5.53,2.29,8.18,3.64c4.87,2.49,8.38,5.94,8.12,12-.26,6.28-3.25,10.67-8.82,13.39A23.16,23.16,0,0,1,742.07,782.16Z" transform="translate(-50.48 -50.47)"/><path class="cls-10" d="M591,782.18c-5.93-.17-11.56-1.36-16.36-5.11-2.58-2-4.31-4.68-2-7.68s4.79-1,7,.61c4.47,3.21,9.24,5.18,14.9,4.08,3.33-.65,6.09-2.14,6.86-5.64s-1.74-5.6-4.45-7c-4.58-2.33-9.39-4.21-14-6.5-7.24-3.59-9.81-7.7-9-13.88.79-5.94,6-10.83,13-12.09a25,25,0,0,1,19.05,3.78c2.5,1.68,4.53,4.24,2.52,7.11s-5,1.69-7.41-.19c-3.74-2.87-7.82-4.31-12.58-3-2.72.73-5,1.94-5.57,5-.58,3.25,1.6,5,4.05,6.15,3.43,1.66,7,3,10.54,4.46,11,4.59,14.28,9.13,12.62,17.38C608.55,777.38,601.09,782.27,591,782.18Z" transform="translate(-50.48 -50.47)"/><path class="cls-11" d="M543.28,668.46c-2.87-2.53-6.22-3.62-9.27-5.16-8.72-4.42-17.54-8.65-26.32-12.95-2.64-1.29-5.43-2.76-3.78-6.33s4.46-2,6.82-.81q20.09,9.9,40.09,19.94c2.1,1.06,4.18,2.3,4.12,5.11s-2.09,3.94-4.24,5c-13.2,6.59-26.38,13.23-39.61,19.76-2.48,1.23-5.48,3-7.2-.83-1.63-3.67,1.43-4.91,4-6.18Z" transform="translate(-50.48 -50.47)"/><path class="cls-10" d="M737.85,680c0,5.82,0,11.64,0,17.46,0,3.17-.09,6.32-4.35,6.35-4.1,0-4.59-2.86-4.56-6.19.07-11.48,0-23,.07-34.43,0-2.94.11-5.17-4-4.78-2.44.24-4.08-1.32-3.89-4,.17-2.4,1.67-3.76,4-3.47,3.63.46,4.12-1.36,3.88-4.31-.19-2.31,0-4.65,0-7,0-3,1.47-4.66,4.58-4.62,2.9,0,4.18,1.69,4.26,4.42.06,1.83.08,3.66,0,5.49-.15,3.38-.55,6.69,4.71,6.12,2.1-.22,3.23,1.61,3.23,3.66s-1.21,3.8-3.29,3.62c-4.68-.39-4.86,2.17-4.7,5.73C738,669.34,737.85,674.67,737.85,680Z" transform="translate(-50.48 -50.47)"/><path class="cls-7" d="M621.15,758c0-5.83-.11-11.65.05-17.47.07-2.59-.32-4-3.41-3.76-2.38.2-4.25-.88-4.29-3.68,0-3,1.88-4.24,4.5-4,2.82.21,3.36-1,3.18-3.43s0-4.66,0-7c0-3,1-5.35,4.43-5.44s4.59,2.11,4.59,5.19c0,1.33,0,2.66,0,4,0,3.47-1.25,7.59,4.95,6.93,1.9-.2,3,1.82,2.86,4a3.46,3.46,0,0,1-4,3.48c-3.86-.45-3.84,1.66-3.82,4.43.09,11.48,0,23,0,34.44,0,3.15-.11,6.38-4.31,6.46-4.47.08-4.76-3.21-4.74-6.6C621.17,769.65,621.15,763.83,621.15,758Z" transform="translate(-50.48 -50.47)"/><path class="cls-7" d="M535,744c0-10.82,0-21.64,0-32.46,0-3.14.38-5.91,4.23-6,4-.06,4.7,2.78,4.69,6.14q-.06,32.21,0,64.42c0,3.11-.56,5.86-4.36,6-4.19.1-4.57-2.82-4.55-6.14C535,765.31,535,754.66,535,744Z" transform="translate(-50.48 -50.47)"/><path class="cls-12" d="M704.22,736.36c3.19-3.73,5.71-6.85,9.95-7.64,2.93-.56,5.53,0,6.43,3.12,1,3.28-1.24,4.85-4,5.78-10.43,3.52-12.57,6.45-12.57,17.22,0,7.15,0,14.29,0,21.44,0,3.19-.77,5.81-4.49,5.82s-4.55-2.61-4.55-5.8c0-13.29,0-26.59,0-39.88,0-3.43-.72-7.64,4.46-7.82C704.23,728.43,703.94,732.42,704.22,736.36Z" transform="translate(-50.48 -50.47)"/><path class="cls-10" d="M715,677c0,7.16-.06,14.32,0,21.48,0,3.12-.93,5.31-4.38,5.33s-4.52-2.22-4.52-5.29q0-21.48,0-42.95c0-3.12,1.15-5.36,4.48-5.36s4.48,2.13,4.44,5.31C715,662.69,715,669.85,715,677Z" transform="translate(-50.48 -50.47)"/><path class="cls-7" d="M555,755.5c0-7.15.07-14.31,0-21.46,0-3.09.8-5.41,4.22-5.5,3.71-.09,4.69,2.42,4.69,5.65q0,21.21,0,42.44c0,3-.87,5.4-4.34,5.48-3.76.08-4.62-2.35-4.57-5.64C555.06,769.48,555,762.49,555,755.5Z" transform="translate(-50.48 -50.47)"/><path class="cls-11" d="M716.08,637.59c-.23,3.93-2.18,5.74-5.45,5.73-3.6,0-5.58-2.27-5.4-5.75.17-3.29,2.4-5.11,5.68-5A5,5,0,0,1,716.08,637.59Z" transform="translate(-50.48 -50.47)"/><path class="cls-11" d="M553.94,716.18c.18-3.14,1.83-5.17,5.2-5.29s5.42,1.78,5.64,5c.25,3.63-2.08,5.74-5.44,5.77C556.23,721.73,554.12,719.8,553.94,716.18Z" transform="translate(-50.48 -50.47)"/><path class="cls-3" d="M533.31,597.23c0-.74.23-1.25,1.13-.92C534.49,597.15,534,597.26,533.31,597.23Z" transform="translate(-50.48 -50.47)"/><path class="cls-4" d="M774.92,596c-.11-.81.41-.85,1-.81C775.83,595.73,775.53,596,774.92,596Z" transform="translate(-50.48 -50.47)"/><path class="cls-5" d="M398.22,593.13c.13-.64.47-.93,1.13-.67Z" transform="translate(-50.48 -50.47)"/><path class="cls-13" d="M673,658c4.9,0,8.77,2.59,11,7.28a26.07,26.07,0,0,1,0,23.54,12.14,12.14,0,0,1-11.51,7.33,12,12,0,0,1-11.3-6.87,25.81,25.81,0,0,1,0-24.41C663.39,660.41,667.27,658,673,658Z" transform="translate(-50.48 -50.47)"/><path class="cls-13" d="M663.89,752c-3.66,0-7.33-.15-11,0-2.42.13-3.21-.51-2.86-3,1-7.47,6.39-12.66,13.55-12.85,7.34-.19,13.12,5,14.35,12.59.44,2.77-.5,3.41-3.08,3.27C671.22,751.84,667.55,752,663.89,752Z" transform="translate(-50.48 -50.47)"/></svg>